{
  "accessors": [
    {
      "bufferView": 2,
      "componentType": 5126,
      "count": 9,
      "max": [
        0.25,
        0,
        0.25
      ],
      "min": [
        -0.25,
        0,
        -0.25
      ],
      "type": "VEC3"
    },
    {
      "bufferView": 2,
      "byteOffset": 108,
      "componentType": 5126,
      "count": 9,
      "max": [
        0,
        1,
        -0
      ],
      "min": [
        0,
        1,
        -0
      ],
      "type": "VEC3"
    },
    {
      "bufferView": 3,
      "componentType": 5126,
      "count": 9,
      "max": [
        1,
        0,
        -0,
        1
      ],
      "min": [
        1,
        0,
        -0,
        1
      ],
      "type": "VEC4"
    },
    {
      "bufferView": 1,
      "componentType": 5126,
      "count": 9,
      "max": [
        0.625,
        0.625
      ],
      "min": [
        0.375,
        0.375
      ],
      "type": "VEC2"
    },
    {
      "bufferView": 0,
      "componentType": 5125,
      "count": 24,
      "max": [
        8
      ],
      "min": [
        0
      ],
      "type": "SCALAR"
    },
    {
      "bufferView": 2,
      "byteOffset": 216,
      "componentType": 5126,
      "count": 49284,
      "max": [
        2.7716248035430908,
        0.61213761568069458,
        0.029883798211812973
      ],
      "min": [
        0.027371644973754883,
        -0.024323781952261925,
        -0.30050563812255859
      ],
      "type": "VEC3"
    },
    {
      "bufferView": 2,
      "byteOffset": 591624,
      "componentType": 5126,
      "count": 49284,
      "max": [
        1,
        0.99999010562896729,
        0.99999475479125977
      ],
      "min": [
        -1,
        -0.9999701976776123,
        -0.99999749660491943
      ],
      "type": "VEC3"
    },
    {
      "bufferView": 0,
      "byteOffset": 96,
      "componentType": 5125,
      "count": 298620,
      "max": [
        49283
      ],
      "min": [
        0
      ],
      "type": "SCALAR"
    },
    {
      "bufferView": 4,
      "componentType": 5126,
      "count": 201,
      "max": [
        8.3333330154418945
      ],
      "min": [
        0
      ],
      "type": "SCALAR"
    },
    {
      "bufferView": 5,
      "componentType": 5126,
      "count": 201,
      "max": [
        4.3270530700683594,
        0.075546391308307648,
        5.8152561187744141
      ],
      "min": [
        1.2347509860992432,
        -0.93645709753036499,
        -0.02807241678237915
      ],
      "type": "VEC3"
    },
    {
      "bufferView": 4,
      "byteOffset": 804,
      "componentType": 5126,
      "count": 122,
      "max": [
        8.3333330154418945
      ],
      "min": [
        0
      ],
      "type": "SCALAR"
    },
    {
      "bufferView": 6,
      "componentType": 5126,
      "count": 122,
      "max": [
        0.7772376537322998,
        0.10909347236156464,
        -0.054938450455665588,
        0.62488943338394165
      ],
      "min": [
        0.7682950496673584,
        0.048954840749502182,
        -0.12976671755313873,
        0.61723744869232178
      ],
      "type": "VEC4"
    }
  ],
  "animations": [
    {
      "channels": [
        {
          "sampler": 0,
          "target": {
            "node": 4,
            "path": "translation"
          }
        },
        {
          "sampler": 1,
          "target": {
            "node": 4,
            "path": "rotation"
          }
        }
      ],
      "name": "CameraAction.001",
      "samplers": [
        {
          "input": 8,
          "interpolation": "LINEAR",
          "output": 9
        },
        {
          "input": 10,
          "interpolation": "LINEAR",
          "output": 11
        }
      ]
    }
  ],
  "asset": {
    "extras": {
      "author": "Halpho (https://sketchfab.com/alorented.al7e02de62c2a94539)",
      "license": "CC-BY-4.0 (http://creativecommons.org/licenses/by/4.0/)",
      "source": "https://sketchfab.com/3d-models/neon-dragon-sign-c22e6ed8b14a43ec9d9038097a620fc8",
      "title": "Neon Dragon Sign"
    },
    "generator": "Sketchfab-6.9.0",
    "version": "2.0"
  },
  "bufferViews": [
    {
      "buffer": 0,
      "byteLength": 1194576,
      "byteOffset": 0,
      "name": "floatBufferViews",
      "target": 34963
    },
    {
      "buffer": 0,
      "byteLength": 72,
      "byteOffset": 1194576,
      "byteStride": 8,
      "name": "floatBufferViews",
      "target": 34962
    },
    {
      "buffer": 0,
      "byteLength": 1183032,
      "byteOffset": 1194648,
      "byteStride": 12,
      "name": "floatBufferViews",
      "target": 34962
    },
    {
      "buffer": 0,
      "byteLength": 144,
      "byteOffset": 2377680,
      "byteStride": 16,
      "name": "floatBufferViews",
      "target": 34962
    },
    {
      "buffer": 0,
      "byteLength": 1292,
      "byteOffset": 2377824,
      "name": "floatBufferViews"
    },
    {
      "buffer": 0,
      "byteLength": 2412,
      "byteOffset": 2379116,
      "byteStride": 12,
      "name": "floatBufferViews"
    },
    {
      "buffer": 0,
      "byteLength": 1952,
      "byteOffset": 2381528,
      "byteStride": 16,
      "name": "floatBufferViews"
    }
  ],
  "buffers": [
    {
      "byteLength": 2383480,
      "uri": "scene.bin"
    }
  ],
  "images": [
    {
      "uri": "textures/WoodQuarteredChiffon001_3K.001_baseColor.jpeg"
    }
  ],
  "materials": [
    {
      "doubleSided": true,
      "emissiveFactor": [
        0,
        0,
        0
      ],
      "name": "WoodQuarteredChiffon001_3K.001",
      "pbrMetallicRoughness": {
        "baseColorFactor": [
          1,
          1,
          1,
          1
        ],
        "baseColorTexture": {
          "index": 0,
          "texCoord": 0
        },
        "metallicFactor": 0.86147103658536583,
        "roughnessFactor": 1
      }
    },
    {
      "doubleSided": true,
      "emissiveFactor": [
        1,
        0.037767694000657812,
        0.037767694000657812
      ],
      "name": "Material.000",
      "pbrMetallicRoughness": {
        "baseColorFactor": [
          0.92872101387375861,
          0.94683689024390238,
          0.0032553618520842383,
          1
        ],
        "metallicFactor": 0.23342225609756098,
        "roughnessFactor": 0.36818200000000001
      }
    }
  ],
  "meshes": [
    {
      "primitives": [
        {
          "attributes": {
            "NORMAL": 1,
            "POSITION": 0,
            "TANGENT": 2,
            "TEXCOORD_0": 3
          },
          "indices": 4,
          "material": 0,
          "mode": 4
        }
      ]
    },
    {
      "primitives": [
        {
          "attributes": {
            "NORMAL": 6,
            "POSITION": 5
          },
          "indices": 7,
          "material": 1,
          "mode": 4
        }
      ]
    }
  ],
  "nodes": [
    {
      "children": [
        1
      ],
      "name": "RootNode (gltf orientation matrix)",
      "rotation": [
        -0.70710678118654746,
        -0,
        -0,
        0.70710678118654757
      ]
    },
    {
      "children": [
        2
      ],
      "name": "RootNode (model correction matrix)"
    },
    {
      "children": [
        3
      ],
      "name": "root"
    },
    {
      "children": [
        4,
        5,
        6,
        8
      ],
      "matrix": [
        1,
        0,
        0,
        0,
        0,
        2.2204460492503131e-16,
        1,
        0,
        0,
        -1,
        2.2204460492503131e-16,
        0,
        0,
        0,
        0,
        1
      ],
      "name": "GLTF_SceneRootNode"
    },
    {
      "name": "Camera.001_0",
      "rotation": [
        0.76829499006271362,
        0.10909346491098404,
        -0.12976671755313873,
        0.61723744869232178
      ],
      "translation": [
        4.3270530700683594,
        -0.93645709753036499,
        2.0331838130950928
      ]
    },
    {
      "name": "Text.001_1"
    },
    {
      "children": [
        7
      ],
      "matrix": [
        10.244612693786621,
        0,
        0,
        0,
        0,
        -0.20871502219237437,
        10.242485428115488,
        0,
        0,
        -10.242485428115488,
        -0.20871502219237437,
        0,
        1.4661679267883301,
        0.31804853677749634,
        -0.29206085205078125,
        1
      ],
      "name": "Plane.000_2"
    },
    {
      "mesh": 0,
      "name": ""
    },
    {
      "children": [
        9
      ],
      "name": "Text.002_3"
    },
    {
      "mesh": 1,
      "name": ""
    }
  ],
  "samplers": [
    {
      "magFilter": 9729,
      "minFilter": 9987,
      "wrapS": 10497,
      "wrapT": 10497
    }
  ],
  "scene": 0,
  "scenes": [
    {
      "name": "OSG_Scene",
      "nodes": [
        0
      ]
    }
  ],
  "textures": [
    {
      "sampler": 0,
      "source": 0
    }
  ]
}

