{
  "accessors": [
    {
      "bufferView": 1,
      "componentType": 5126,
      "count": 2160,
      "max": [
        -24,
        -0,
        71
      ],
      "min": [
        -69,
        -21.844999313354492,
        -35
      ],
      "type": "VEC3"
    },
    {
      "bufferView": 1,
      "byteOffset": 25920,
      "componentType": 5126,
      "count": 2160,
      "max": [
        0.99974900484085083,
        1,
        0.99235594272613525
      ],
      "min": [
        -1,
        -1,
        -0.99235594272613525
      ],
      "type": "VEC3"
    },
    {
      "bufferView": 0,
      "componentType": 5125,
      "count": 6414,
      "max": [
        2159
      ],
      "min": [
        0
      ],
      "type": "SCALAR"
    }
  ],
  "asset": {
    "extras": {
      "author": "Yo Boy (https://sketchfab.com/jratanatharathorn)",
      "license": "CC-BY-4.0 (http://creativecommons.org/licenses/by/4.0/)",
      "source": "https://sketchfab.com/3d-models/dual-word-ilusion-b4c8a9173a674a9ca7d9f5313e0f582c",
      "title": "Dual Word Ilusion"
    },
    "generator": "Sketchfab-9.43.0",
    "version": "2.0"
  },
  "bufferViews": [
    {
      "buffer": 0,
      "byteLength": 25656,
      "byteOffset": 0,
      "name": "floatBufferViews",
      "target": 34963
    },
    {
      "buffer": 0,
      "byteLength": 51840,
      "byteOffset": 25656,
      "byteStride": 12,
      "name": "floatBufferViews",
      "target": 34962
    }
  ],
  "buffers": [
    {
      "byteLength": 77496,
      "uri": "scene.bin"
    }
  ],
  "materials": [
    {
      "doubleSided": true,
      "emissiveFactor": [
        0,
        0,
        0
      ],
      "name": "color_40919",
      "pbrMetallicRoughness": {
        "baseColorFactor": [
          0,
          0.623529,
          0.84313700000000003,
          1
        ],
        "metallicFactor": 0,
        "roughnessFactor": 1
      }
    }
  ],
  "meshes": [
    {
      "primitives": [
        {
          "attributes": {
            "NORMAL": 1,
            "POSITION": 0
          },
          "indices": 2,
          "material": 0,
          "mode": 4
        }
      ]
    }
  ],
  "nodes": [
    {
      "children": [
        1
      ],
      "name": "RootNode (gltf orientation matrix)",
      "rotation": [
        -0.70710678118654746,
        -0,
        -0,
        0.70710678118654757
      ]
    },
    {
      "children": [
        2
      ],
      "matrix": [
        1.1102230246251565e-16,
        1,
        -3.8857805861880479e-16,
        0,
        -1.6653345369377348e-16,
        -4.4408920985006262e-16,
        -1,
        0,
        -1,
        1.6653345369377348e-16,
        1.1102230246251565e-16,
        0,
        -28.500082015991211,
        35.577548980712891,
        7.0774688720703125,
        1
      ],
      "name": "RootNode (model correction matrix)"
    },
    {
      "children": [
        3
      ],
      "name": "tinker.obj.cleaner.materialmerger.gles"
    },
    {
      "mesh": 0,
      "name": ""
    }
  ],
  "scene": 0,
  "scenes": [
    {
      "name": "OSG_Scene",
      "nodes": [
        0
      ]
    }
  ]
}

